<svg width="375" height="812" viewBox="0 0 375 812" fill="none" xmlns="http://www.w3.org/2000/svg">
<g clip-path="url(#clip0)">
<rect width="375" height="812" fill="#202024"/>
<circle cx="278" cy="99" r="300" transform="rotate(-180 278 99)" fill="url(#paint0_radial)"/>
<circle cx="98" cy="99" r="300" transform="rotate(-180 98 99)" fill="url(#paint1_radial)"/>
<path d="M376 182.492V-275.824L188.5 -379L1 -275.824V182.492L188.5 285.674L376 182.492Z" fill="url(#paint2_linear)"/>
<g style="mix-blend-mode:luminosity" opacity="0.4">
<path d="M2.88071 80.3477V183.157L96.1604 234.567L189.44 183.157V80.3477L96.1604 28.938L2.88071 80.3477Z" fill="url(#paint3_linear)"/>
<path d="M2.88071 -22.4669V80.3426L96.1604 131.752L189.44 80.3426V-22.4669L96.1604 -73.8766L2.88071 -22.4669Z" fill="url(#paint4_linear)"/>
<path d="M390 -24.5L282.72 28.9599L189.44 80.3696L96.1606 28.9599L-14.5 -24.5L96.1606 -78L150 -106L189.44 -125.259L227.5 -106L287 -78L390 -24.5Z" fill="url(#paint5_linear)"/>
<path d="M189.44 183.158V80.3484L282.72 28.9387L375.999 80.3484V183.158L282.72 234.568L189.44 183.158Z" fill="url(#paint6_linear)"/>
<path d="M282.559 131.41V234.219L189.28 285.629L95.9999 234.219V131.41L189.28 80L282.559 131.41Z" fill="url(#paint7_linear)"/>
<path d="M470 -68.9973V42.9973L363.04 99L189 78.7068L256.08 -68.9973L363.04 -125L470 -68.9973Z" fill="url(#paint8_linear)"/>
</g>
</g>
<defs>
<radialGradient id="paint0_radial" cx="0" cy="0" r="1" gradientUnits="userSpaceOnUse" gradientTransform="translate(278 99) rotate(90) scale(300)">
<stop stop-color="#F0CACA"/>
<stop offset="1" stop-color="#121214" stop-opacity="0"/>
</radialGradient>
<radialGradient id="paint1_radial" cx="0" cy="0" r="1" gradientUnits="userSpaceOnUse" gradientTransform="translate(98 99) rotate(90) scale(300)">
<stop stop-color="#AEDFDC"/>
<stop offset="1" stop-color="#121214" stop-opacity="0"/>
</radialGradient>
<linearGradient id="paint2_linear" x1="0.999992" y1="-363.234" x2="459.808" y2="-297.273" gradientUnits="userSpaceOnUse">
<stop stop-color="#F80707"/>
<stop offset="1" stop-color="#020004"/>
</linearGradient>
<linearGradient id="paint3_linear" x1="96.1604" y1="229.839" x2="9.1822" y2="74.7923" gradientUnits="userSpaceOnUse">
<stop stop-color="#D26565"/>
<stop offset="1" stop-color="#A10404"/>
</linearGradient>
<linearGradient id="paint4_linear" x1="96.1604" y1="127.024" x2="9.18218" y2="-28.0223" gradientUnits="userSpaceOnUse">
<stop stop-color="#B91111"/>
<stop offset="1" stop-color="#BC0C0D"/>
</linearGradient>
<linearGradient id="paint5_linear" x1="70.5" y1="22.5" x2="282.156" y2="36.224" gradientUnits="userSpaceOnUse">
<stop stop-color="#F03334"/>
<stop offset="1" stop-color="#941A1F"/>
</linearGradient>
<linearGradient id="paint6_linear" x1="375.999" y1="188.936" x2="194.151" y2="74.3098" gradientUnits="userSpaceOnUse">
<stop stop-color="#3D1518"/>
<stop offset="0.713542" stop-color="#663D3F"/>
<stop offset="1" stop-color="#D94045"/>
</linearGradient>
<linearGradient id="paint7_linear" x1="189.28" y1="280.901" x2="276.258" y2="125.854" gradientUnits="userSpaceOnUse">
<stop stop-color="#666666"/>
<stop offset="1" stop-color="#938A8A" stop-opacity="0"/>
</linearGradient>
<linearGradient id="paint8_linear" x1="363.04" y1="93.8492" x2="455.203" y2="-79.0842" gradientUnits="userSpaceOnUse">
<stop stop-color="#C20404"/>
<stop offset="1" stop-color="#180F14" stop-opacity="0"/>
</linearGradient>
<clipPath id="clip0">
<rect width="375" height="812" fill="white"/>
</clipPath>
</defs>
</svg>
